<svg xmlns="http://www.w3.org/2000/svg" xmlns:xlink="http://www.w3.org/1999/xlink" width="8" height="14" viewBox="0 0 8 14"><defs><path id="d0bla" d="M1347 1921.835a.46.46 0 0 0 .137.323l.688.701a.47.47 0 0 0 .316.14.47.47 0 0 0 .316-.14l6.405-6.537a.49.49 0 0 0 .138-.322.488.488 0 0 0-.138-.323l-6.405-6.537a.469.469 0 0 0-.316-.14.47.47 0 0 0-.316.14l-.688.701a.488.488 0 0 0-.137.323c0 .112.055.238.137.323l5.402 5.513-5.402 5.513a.489.489 0 0 0-.137.322z"/></defs><g><g transform="translate(-1347 -1909)"><use fill="#ddd" xlink:href="#d0bla"/></g></g></svg>