<svg xmlns="http://www.w3.org/2000/svg" xmlns:xlink="http://www.w3.org/1999/xlink" width="8" height="14" viewBox="0 0 8 14"><defs><path id="t75ra" d="M252 1910.164a.46.46 0 0 0-.137-.323l-.688-.701a.47.47 0 0 0-.316-.14.47.47 0 0 0-.316.14l-6.406 6.537a.488.488 0 0 0-.137.323.49.49 0 0 0 .137.322l6.406 6.537a.47.47 0 0 0 .316.14.47.47 0 0 0 .316-.14l.688-.701a.489.489 0 0 0 .137-.323.489.489 0 0 0-.137-.322L246.46 1916l5.403-5.513a.488.488 0 0 0 .137-.323z"/></defs><g><g transform="translate(-244 -1909)"><use fill="#ddd" xlink:href="#t75ra"/></g></g></svg>