<svg xmlns="http://www.w3.org/2000/svg" xmlns:xlink="http://www.w3.org/1999/xlink" width="9" height="16" viewBox="0 0 9 16"><defs><path id="rfvla" d="M323.097 1987.003l-2.018-.004c-2.267 0-3.732 1.546-3.732 3.938v1.815h-2.03a.322.322 0 0 0-.317.327v2.63c0 .18.142.326.317.326h2.03v6.638c0 .18.141.327.317.327h2.647a.322.322 0 0 0 .318-.327v-6.638H323a.321.321 0 0 0 .317-.326l.001-2.63a.331.331 0 0 0-.093-.23.313.313 0 0 0-.224-.097h-2.373v-1.539c0-.739.171-1.115 1.108-1.115h1.36a.322.322 0 0 0 .317-.326v-2.443a.322.322 0 0 0-.317-.326z"/></defs><g><g transform="translate(-315 -1987)"><use fill="#fff" xlink:href="#rfvla"/></g></g></svg>
