<svg xmlns="http://www.w3.org/2000/svg" xmlns:xlink="http://www.w3.org/1999/xlink" width="14" height="14" viewBox="0 0 14 14"><defs><path id="rvw0a" d="M408.18 1990.549h-3.007v9.45h3.008zm.192-2.919c-.009-.925-.647-1.63-1.677-1.63-1.02 0-1.695.705-1.695 1.63 0 .906.647 1.631 1.659 1.631h.018c1.048 0 1.704-.725 1.695-1.63zm10.628 6.953c0-2.9-1.477-4.254-3.454-4.254-1.598 0-2.312.916-2.708 1.563v-1.343h-2.998s.036.887 0 9.45h2.998v-5.273c0-.286.028-.563.1-.773.22-.562.712-1.144 1.541-1.144 1.085 0 1.522.867 1.522 2.136V2000H419z"/></defs><g><g transform="translate(-405 -1986)"><use fill="#fff" xlink:href="#rvw0a"/></g></g></svg>