<svg xmlns="http://www.w3.org/2000/svg" xmlns:xlink="http://www.w3.org/1999/xlink" width="53" height="40" viewBox="0 0 53 40"><defs><path id="9p4ua" d="M796.155 1090.174a.921.921 0 0 1-1.328 0l-13.452-13.508a.93.93 0 0 1 0-1.333l13.452-13.507a.922.922 0 0 1 1.328 0l1.444 1.449a.93.93 0 0 1 0 1.333L786.254 1076l11.345 11.39a.93.93 0 0 1 0 1.334zm7.737 5.043c-.145.493-.664.783-1.126.637l-1.79-.492a.94.94 0 0 1-.635-1.16l10.767-37.42c.145-.493.664-.783 1.126-.638l1.79.494a.94.94 0 0 1 .635 1.159zm16.28-5.043a.921.921 0 0 1-1.327 0l-1.444-1.45a.93.93 0 0 1 0-1.333L828.746 1076l-11.345-11.392a.93.93 0 0 1 0-1.333l1.444-1.45a.922.922 0 0 1 1.328 0l13.452 13.508a.93.93 0 0 1 0 1.333z"/></defs><g><g transform="translate(-781 -1056)"><use fill="#c0301c" xlink:href="#9p4ua"/></g></g></svg>