<svg xmlns="http://www.w3.org/2000/svg" xmlns:xlink="http://www.w3.org/1999/xlink" width="48" height="49" viewBox="0 0 48 49"><defs><path id="46t1a" d="M1220.988 1075.861c0 13.255-10.738 23.994-23.994 23.994S1173 1089.116 1173 1075.861c0-13.256 10.738-23.994 23.994-23.994s23.994 10.738 23.994 23.994zm-33.661-18.156l5.195 5.195c1.42-.482 2.919-.75 4.472-.75 1.58 0 3.053.268 4.472.75l5.195-5.195a20.677 20.677 0 0 0-9.667-2.41c-3.481 0-6.775.883-9.667 2.41zm-3.294 22.628c-.482-1.42-.75-2.919-.75-4.472 0-1.58.268-3.053.75-4.472l-5.195-5.195a20.682 20.682 0 0 0-2.41 9.667c0 3.481.883 6.775 2.41 9.667zm22.628 13.684l-5.195-5.195a13.74 13.74 0 0 1-4.472.75c-1.553 0-3.053-.268-4.472-.75l-5.195 5.195a20.676 20.676 0 0 0 9.667 2.41c3.481 0 6.775-.883 9.667-2.41zm.616-18.156c0-5.677-4.606-10.283-10.283-10.283s-10.283 4.606-10.283 10.283 4.606 10.283 10.283 10.283 10.283-4.606 10.283-10.283zm7.873 9.667a20.68 20.68 0 0 0 2.41-9.667c0-3.481-.883-6.775-2.41-9.667l-5.195 5.195c.482 1.42.75 2.919.75 4.472a13.87 13.87 0 0 1-.75 4.472z"/></defs><g><g transform="translate(-1173 -1051)"><use fill="#c0301c" xlink:href="#46t1a"/></g></g></svg>