<svg xmlns="http://www.w3.org/2000/svg" xmlns:xlink="http://www.w3.org/1999/xlink" width="35" height="35" viewBox="0 0 35 35"><defs><path id="xkpua" d="M726.5 6266c9.665 0 17.5 7.835 17.5 17.5s-7.835 17.5-17.5 17.5-17.5-7.835-17.5-17.5 7.835-17.5 17.5-17.5z"/><path id="xkpuc" d="M735 6278.425a7.013 7.013 0 0 1-1.888.468c.68-.374 1.198-.965 1.441-1.669-.63.348-1.34.6-2.081.732a3.403 3.403 0 0 0-2.396-.956c-1.817 0-3.28 1.359-3.28 3.028 0 .234.031.468.082.694-2.72-.132-5.147-1.332-6.761-3.17-.285.45-.447.967-.447 1.529 0 1.05.579 1.978 1.462 2.522a3.515 3.515 0 0 1-1.482-.385v.038c0 1.472 1.127 2.69 2.63 2.972a3.762 3.762 0 0 1-.864.103c-.213 0-.416-.019-.62-.047.417 1.2 1.625 2.072 3.067 2.1a6.919 6.919 0 0 1-4.071 1.294c-.274 0-.528-.01-.792-.038a9.834 9.834 0 0 0 5.035 1.36c6.03 0 9.33-4.613 9.33-8.616 0-.131 0-.262-.01-.394a6.775 6.775 0 0 0 1.645-1.565z"/><clipPath id="xkpub"><use fill="#fff" xlink:href="#xkpua"/></clipPath></defs><g><g transform="translate(-709 -6266)"><use fill="#fff" fill-opacity="0" stroke="#fff" stroke-miterlimit="50" stroke-width="4" clip-path="url(&quot;#xkpub&quot;)" xlink:href="#xkpua"/></g><g transform="translate(-709 -6266)"><use fill="#fff" xlink:href="#xkpuc"/></g></g></svg>